<svg xmlns="http://www.w3.org/2000/svg" xmlns:xlink="http://www.w3.org/1999/xlink" width="246" zoomAndPan="magnify" viewBox="0 0 184.5 44.999999" height="60" preserveAspectRatio="xMidYMid meet" version="1.0"><defs><g/><clipPath id="id1"><path d="M 0 0.0625 L 184 0.0625 L 184 44.9375 L 0 44.9375 Z M 0 0.0625 " clip-rule="nonzero"/></clipPath><clipPath id="id2"><path d="M 18 5 L 51.105469 5 L 51.105469 27 L 18 27 Z M 18 5 " clip-rule="nonzero"/></clipPath><clipPath id="id3"><path d="M 37 33 L 46 33 L 46 42.183594 L 37 42.183594 Z M 37 33 " clip-rule="nonzero"/></clipPath><clipPath id="id4"><path d="M 19 33 L 28 33 L 28 42.183594 L 19 42.183594 Z M 19 33 " clip-rule="nonzero"/></clipPath><clipPath id="id5"><path d="M 6.105469 3.183594 L 47 3.183594 L 47 34 L 6.105469 34 Z M 6.105469 3.183594 " clip-rule="nonzero"/></clipPath></defs><g clip-path="url(#id1)"><path fill="#ffffff" d="M 0 0.0625 L 184.5 0.0625 L 184.5 52.5625 L 0 52.5625 Z M 0 0.0625 " fill-opacity="1" fill-rule="nonzero"/><path fill="#ffffff" d="M 0 0.0625 L 184.5 0.0625 L 184.5 45.0625 L 0 45.0625 Z M 0 0.0625 " fill-opacity="1" fill-rule="nonzero"/><path fill="#ffffff" d="M 0 0.0625 L 184.5 0.0625 L 184.5 45.0625 L 0 45.0625 Z M 0 0.0625 " fill-opacity="1" fill-rule="nonzero"/><path fill="#ffffff" d="M 0 0.0625 L 184.5 0.0625 L 184.5 45.0625 L 0 45.0625 Z M 0 0.0625 " fill-opacity="1" fill-rule="nonzero"/></g><g fill="#1650e0" fill-opacity="1"><g transform="translate(55.439254, 24.863628)"><g><path d="M 5.921875 -8.484375 C 5.234375 -8.484375 4.695312 -8.203125 4.3125 -7.640625 C 3.925781 -7.078125 3.734375 -6.300781 3.734375 -5.3125 C 3.734375 -3.25 4.519531 -2.21875 6.09375 -2.21875 C 6.5625 -2.21875 7.015625 -2.28125 7.453125 -2.40625 C 7.898438 -2.539062 8.347656 -2.703125 8.796875 -2.890625 L 8.796875 -0.453125 C 7.910156 -0.0546875 6.898438 0.140625 5.765625 0.140625 C 4.148438 0.140625 2.910156 -0.328125 2.046875 -1.265625 C 1.191406 -2.203125 0.765625 -3.554688 0.765625 -5.328125 C 0.765625 -6.429688 0.972656 -7.398438 1.390625 -8.234375 C 1.804688 -9.078125 2.40625 -9.722656 3.1875 -10.171875 C 3.96875 -10.628906 4.890625 -10.859375 5.953125 -10.859375 C 7.109375 -10.859375 8.210938 -10.609375 9.265625 -10.109375 L 8.390625 -7.828125 C 7.992188 -8.015625 7.597656 -8.171875 7.203125 -8.296875 C 6.804688 -8.421875 6.378906 -8.484375 5.921875 -8.484375 Z M 5.921875 -8.484375 "/></g></g></g><g fill="#1650e0" fill-opacity="1"><g transform="translate(67.00314, 24.863628)"><g><path d="M 10.328125 0 L 7.421875 0 L 7.421875 -4.359375 L 4.0625 -4.359375 L 4.0625 0 L 1.15625 0 L 1.15625 -10.703125 L 4.0625 -10.703125 L 4.0625 -6.734375 L 7.421875 -6.734375 L 7.421875 -10.703125 L 10.328125 -10.703125 Z M 10.328125 0 "/></g></g></g><g fill="#1650e0" fill-opacity="1"><g transform="translate(80.324838, 24.863628)"><g><path d="M 11.171875 -5.375 C 11.171875 -3.570312 10.726562 -2.203125 9.84375 -1.265625 C 8.96875 -0.328125 7.675781 0.140625 5.96875 0.140625 C 4.289062 0.140625 3.003906 -0.328125 2.109375 -1.265625 C 1.210938 -2.210938 0.765625 -3.585938 0.765625 -5.390625 C 0.765625 -7.171875 1.207031 -8.53125 2.09375 -9.46875 C 2.988281 -10.40625 4.285156 -10.875 5.984375 -10.875 C 7.691406 -10.875 8.984375 -10.40625 9.859375 -9.46875 C 10.734375 -8.539062 11.171875 -7.175781 11.171875 -5.375 Z M 3.8125 -5.375 C 3.8125 -3.300781 4.53125 -2.265625 5.96875 -2.265625 C 6.695312 -2.265625 7.238281 -2.515625 7.59375 -3.015625 C 7.945312 -3.515625 8.125 -4.300781 8.125 -5.375 C 8.125 -6.4375 7.941406 -7.222656 7.578125 -7.734375 C 7.222656 -8.242188 6.691406 -8.5 5.984375 -8.5 C 4.535156 -8.5 3.8125 -7.457031 3.8125 -5.375 Z M 3.8125 -5.375 "/></g></g></g><g fill="#1650e0" fill-opacity="1"><g transform="translate(94.107961, 24.863628)"><g><path d="M 11.171875 -5.375 C 11.171875 -3.570312 10.726562 -2.203125 9.84375 -1.265625 C 8.96875 -0.328125 7.675781 0.140625 5.96875 0.140625 C 4.289062 0.140625 3.003906 -0.328125 2.109375 -1.265625 C 1.210938 -2.210938 0.765625 -3.585938 0.765625 -5.390625 C 0.765625 -7.171875 1.207031 -8.53125 2.09375 -9.46875 C 2.988281 -10.40625 4.285156 -10.875 5.984375 -10.875 C 7.691406 -10.875 8.984375 -10.40625 9.859375 -9.46875 C 10.734375 -8.539062 11.171875 -7.175781 11.171875 -5.375 Z M 3.8125 -5.375 C 3.8125 -3.300781 4.53125 -2.265625 5.96875 -2.265625 C 6.695312 -2.265625 7.238281 -2.515625 7.59375 -3.015625 C 7.945312 -3.515625 8.125 -4.300781 8.125 -5.375 C 8.125 -6.4375 7.941406 -7.222656 7.578125 -7.734375 C 7.222656 -8.242188 6.691406 -8.5 5.984375 -8.5 C 4.535156 -8.5 3.8125 -7.457031 3.8125 -5.375 Z M 3.8125 -5.375 "/></g></g></g><g fill="#1650e0" fill-opacity="1"><g transform="translate(107.891085, 24.863628)"><g><path d="M 8.15625 -3.25 C 8.15625 -2.582031 7.988281 -1.988281 7.65625 -1.46875 C 7.320312 -0.957031 6.835938 -0.5625 6.203125 -0.28125 C 5.566406 0 4.820312 0.140625 3.96875 0.140625 C 3.25 0.140625 2.644531 0.09375 2.15625 0 C 1.675781 -0.101562 1.175781 -0.28125 0.65625 -0.53125 L 0.65625 -3.109375 C 1.207031 -2.828125 1.78125 -2.601562 2.375 -2.4375 C 2.976562 -2.28125 3.523438 -2.203125 4.015625 -2.203125 C 4.453125 -2.203125 4.769531 -2.273438 4.96875 -2.421875 C 5.164062 -2.578125 5.265625 -2.769531 5.265625 -3 C 5.265625 -3.144531 5.222656 -3.269531 5.140625 -3.375 C 5.066406 -3.488281 4.9375 -3.601562 4.75 -3.71875 C 4.570312 -3.832031 4.097656 -4.0625 3.328125 -4.40625 C 2.628906 -4.726562 2.101562 -5.035156 1.75 -5.328125 C 1.40625 -5.628906 1.148438 -5.972656 0.984375 -6.359375 C 0.816406 -6.742188 0.734375 -7.203125 0.734375 -7.734375 C 0.734375 -8.710938 1.09375 -9.476562 1.8125 -10.03125 C 2.53125 -10.582031 3.515625 -10.859375 4.765625 -10.859375 C 5.878906 -10.859375 7.007812 -10.601562 8.15625 -10.09375 L 7.265625 -7.859375 C 6.265625 -8.316406 5.40625 -8.546875 4.6875 -8.546875 C 4.300781 -8.546875 4.023438 -8.476562 3.859375 -8.34375 C 3.691406 -8.21875 3.609375 -8.054688 3.609375 -7.859375 C 3.609375 -7.648438 3.710938 -7.460938 3.921875 -7.296875 C 4.140625 -7.128906 4.734375 -6.828125 5.703125 -6.390625 C 6.617188 -5.972656 7.253906 -5.523438 7.609375 -5.046875 C 7.972656 -4.578125 8.15625 -3.976562 8.15625 -3.25 Z M 8.15625 -3.25 "/></g></g></g><g fill="#1650e0" fill-opacity="1"><g transform="translate(118.378313, 24.863628)"><g><path d="M 7.515625 0 L 1.15625 0 L 1.15625 -10.703125 L 7.515625 -10.703125 L 7.515625 -8.390625 L 4.046875 -8.390625 L 4.046875 -6.703125 L 7.265625 -6.703125 L 7.265625 -4.375 L 4.046875 -4.375 L 4.046875 -2.359375 L 7.515625 -2.359375 Z M 7.515625 0 "/></g></g></g><g fill="#1650e0" fill-opacity="1"><g transform="translate(128.440735, 24.863628)"><g><path d="M 5.828125 0 L 3.640625 -7.71875 L 3.5625 -7.71875 C 3.664062 -6.40625 3.71875 -5.382812 3.71875 -4.65625 L 3.71875 0 L 1.15625 0 L 1.15625 -10.703125 L 5.015625 -10.703125 L 7.25 -3.109375 L 7.296875 -3.109375 L 9.5 -10.703125 L 13.359375 -10.703125 L 13.359375 0 L 10.6875 0 L 10.6875 -4.6875 C 10.6875 -4.9375 10.691406 -5.207031 10.703125 -5.5 C 10.710938 -5.800781 10.742188 -6.535156 10.796875 -7.703125 L 10.734375 -7.703125 L 8.578125 0 Z M 5.828125 0 "/></g></g></g><g fill="#1650e0" fill-opacity="1"><g transform="translate(144.772688, 24.863628)"><g><path d="M 7.734375 0 L 7.203125 -2 L 3.71875 -2 L 3.171875 0 L 0 0 L 3.5 -10.75 L 7.359375 -10.75 L 10.890625 0 Z M 6.59375 -4.375 L 6.140625 -6.140625 C 6.035156 -6.523438 5.90625 -7.023438 5.75 -7.640625 C 5.59375 -8.265625 5.488281 -8.710938 5.4375 -8.984375 C 5.394531 -8.734375 5.304688 -8.320312 5.171875 -7.75 C 5.046875 -7.1875 4.765625 -6.0625 4.328125 -4.375 Z M 6.59375 -4.375 "/></g></g></g><g fill="#1650e0" fill-opacity="1"><g transform="translate(157.493796, 24.863628)"><g><path d="M 4.046875 -3.890625 L 4.046875 0 L 1.15625 0 L 1.15625 -10.703125 L 4.671875 -10.703125 C 7.578125 -10.703125 9.03125 -9.648438 9.03125 -7.546875 C 9.03125 -6.304688 8.425781 -5.347656 7.21875 -4.671875 L 10.328125 0 L 7.046875 0 L 4.78125 -3.890625 Z M 4.046875 -6.078125 L 4.59375 -6.078125 C 5.601562 -6.078125 6.109375 -6.519531 6.109375 -7.40625 C 6.109375 -8.144531 5.613281 -8.515625 4.625 -8.515625 L 4.046875 -8.515625 Z M 4.046875 -6.078125 "/></g></g></g><g fill="#1650e0" fill-opacity="1"><g transform="translate(169.475164, 24.863628)"><g><path d="M 5.875 0 L 2.984375 0 L 2.984375 -8.34375 L 0.375 -8.34375 L 0.375 -10.703125 L 8.484375 -10.703125 L 8.484375 -8.34375 L 5.875 -8.34375 Z M 5.875 0 "/></g></g></g><g clip-path="url(#id2)"><path fill="#1650e0" d="M 47.261719 24.910156 C 47.261719 25.621094 46.570312 26.207031 45.722656 26.207031 L 22.96875 26.207031 C 22.121094 26.207031 21.429688 25.621094 21.429688 24.910156 L 18.476562 6.675781 C 18.476562 5.960938 19.167969 5.375 20.011719 5.375 L 49.5625 5.375 C 50.410156 5.375 51.101562 5.960938 51.101562 6.675781 L 47.261719 24.910156 " fill-opacity="1" fill-rule="nonzero"/></g><g clip-path="url(#id3)"><path fill="#141515" d="M 45.800781 38.019531 C 45.800781 40.316406 43.964844 42.179688 41.699219 42.179688 C 39.433594 42.179688 37.597656 40.316406 37.597656 38.019531 C 37.597656 35.726562 39.433594 33.863281 41.699219 33.863281 C 43.964844 33.863281 45.800781 35.726562 45.800781 38.019531 " fill-opacity="1" fill-rule="nonzero"/></g><path fill="#a6a8a7" d="M 43.628906 38.019531 C 43.628906 39.101562 42.765625 39.976562 41.699219 39.976562 C 40.632812 39.976562 39.769531 39.101562 39.769531 38.019531 C 39.769531 36.941406 40.632812 36.066406 41.699219 36.066406 C 42.765625 36.066406 43.628906 36.941406 43.628906 38.019531 " fill-opacity="1" fill-rule="nonzero"/><g clip-path="url(#id4)"><path fill="#141515" d="M 27.386719 38.019531 C 27.386719 40.316406 25.550781 42.179688 23.285156 42.179688 C 21.023438 42.179688 19.1875 40.316406 19.1875 38.019531 C 19.1875 35.726562 21.023438 33.863281 23.285156 33.863281 C 25.550781 33.863281 27.386719 35.726562 27.386719 38.019531 " fill-opacity="1" fill-rule="nonzero"/></g><path fill="#a6a8a7" d="M 25.214844 38.019531 C 25.214844 39.101562 24.351562 39.976562 23.285156 39.976562 C 22.222656 39.976562 21.359375 39.101562 21.359375 38.019531 C 21.359375 36.941406 22.222656 36.066406 23.285156 36.066406 C 24.351562 36.066406 25.214844 36.941406 25.214844 38.019531 " fill-opacity="1" fill-rule="nonzero"/><g clip-path="url(#id5)"><path fill="#e2dedc" d="M 45.152344 31.632812 L 20.886719 31.632812 C 20.5625 31.609375 19.589844 31.441406 19.542969 30.316406 C 19.542969 30.289062 19.539062 30.269531 19.539062 30.242188 C 19.519531 30.082031 19.535156 29.585938 19.796875 29.289062 C 20.003906 29.054688 20.363281 28.9375 20.859375 28.929688 L 41.519531 28.929688 C 42.054688 28.929688 42.484375 28.492188 42.484375 27.953125 C 42.484375 27.410156 42.054688 26.972656 41.519531 26.972656 L 20.847656 26.972656 C 20.777344 26.972656 20.710938 26.976562 20.644531 26.980469 L 16.96875 4.21875 C 16.875 3.621094 16.367188 3.183594 15.773438 3.183594 L 7.320312 3.183594 C 6.648438 3.183594 6.105469 3.738281 6.105469 4.414062 C 6.105469 5.09375 6.648438 5.648438 7.320312 5.648438 L 14.742188 5.648438 L 18.351562 27.992188 C 18.347656 27.996094 18.34375 28.003906 18.339844 28.007812 C 17.53125 28.949219 17.589844 30.144531 17.613281 30.429688 C 17.730469 32.828125 19.757812 33.546875 20.820312 33.589844 L 45.152344 33.589844 C 45.683594 33.589844 46.117188 33.152344 46.117188 32.609375 C 46.117188 32.070312 45.683594 31.632812 45.152344 31.632812 " fill-opacity="1" fill-rule="nonzero"/></g><g fill="#141515" fill-opacity="1"><g transform="translate(65.703614, 32.638486)"><g><path d="M 4.3125 -2.140625 C 4.3125 -1.460938 4.132812 -0.925781 3.78125 -0.53125 C 3.4375 -0.132812 2.957031 0.0625 2.34375 0.0625 C 1.707031 0.0625 1.21875 -0.128906 0.875 -0.515625 C 0.53125 -0.898438 0.359375 -1.445312 0.359375 -2.15625 C 0.359375 -2.851562 0.53125 -3.390625 0.875 -3.765625 C 1.21875 -4.148438 1.707031 -4.34375 2.34375 -4.34375 C 2.957031 -4.34375 3.4375 -4.144531 3.78125 -3.75 C 4.132812 -3.363281 4.3125 -2.828125 4.3125 -2.140625 Z M 0.890625 -2.140625 C 0.890625 -1.566406 1.015625 -1.128906 1.265625 -0.828125 C 1.515625 -0.523438 1.875 -0.375 2.34375 -0.375 C 2.8125 -0.375 3.164062 -0.523438 3.40625 -0.828125 C 3.65625 -1.128906 3.78125 -1.566406 3.78125 -2.140625 C 3.78125 -2.722656 3.660156 -3.160156 3.421875 -3.453125 C 3.179688 -3.753906 2.820312 -3.90625 2.34375 -3.90625 C 1.875 -3.90625 1.515625 -3.753906 1.265625 -3.453125 C 1.015625 -3.148438 0.890625 -2.710938 0.890625 -2.140625 Z M 0.890625 -2.140625 "/></g></g></g><g fill="#141515" fill-opacity="1"><g transform="translate(71.768482, 32.638486)"><g><path d="M 3.9375 0 L 3.359375 0 L 1.03125 -3.59375 L 1 -3.59375 C 1.03125 -3.175781 1.046875 -2.789062 1.046875 -2.4375 L 1.046875 0 L 0.59375 0 L 0.59375 -4.28125 L 1.15625 -4.28125 L 3.484375 -0.703125 L 3.515625 -0.703125 C 3.503906 -0.753906 3.492188 -0.921875 3.484375 -1.203125 C 3.472656 -1.492188 3.46875 -1.703125 3.46875 -1.828125 L 3.46875 -4.28125 L 3.9375 -4.28125 Z M 3.9375 0 "/></g></g></g><g fill="#141515" fill-opacity="1"><g transform="translate(77.683936, 32.638486)"><g><path d="M 0.59375 0 L 0.59375 -4.28125 L 1.09375 -4.28125 L 1.09375 -0.453125 L 2.984375 -0.453125 L 2.984375 0 Z M 0.59375 0 "/></g></g></g><g fill="#141515" fill-opacity="1"><g transform="translate(82.190206, 32.638486)"><g><path d="M 0.59375 0 L 0.59375 -4.28125 L 1.09375 -4.28125 L 1.09375 0 Z M 0.59375 0 "/></g></g></g><g fill="#141515" fill-opacity="1"><g transform="translate(85.255067, 32.638486)"><g><path d="M 3.9375 0 L 3.359375 0 L 1.03125 -3.59375 L 1 -3.59375 C 1.03125 -3.175781 1.046875 -2.789062 1.046875 -2.4375 L 1.046875 0 L 0.59375 0 L 0.59375 -4.28125 L 1.15625 -4.28125 L 3.484375 -0.703125 L 3.515625 -0.703125 C 3.503906 -0.753906 3.492188 -0.921875 3.484375 -1.203125 C 3.472656 -1.492188 3.46875 -1.703125 3.46875 -1.828125 L 3.46875 -4.28125 L 3.9375 -4.28125 Z M 3.9375 0 "/></g></g></g><g fill="#141515" fill-opacity="1"><g transform="translate(91.17052, 32.638486)"><g><path d="M 2.984375 0 L 0.59375 0 L 0.59375 -4.28125 L 2.984375 -4.28125 L 2.984375 -3.84375 L 1.09375 -3.84375 L 1.09375 -2.46875 L 2.859375 -2.46875 L 2.859375 -2.015625 L 1.09375 -2.015625 L 1.09375 -0.453125 L 2.984375 -0.453125 Z M 2.984375 0 "/></g></g></g><g fill="#141515" fill-opacity="1"><g transform="translate(95.899447, 32.638486)"><g/></g></g><g fill="#141515" fill-opacity="1"><g transform="translate(98.850048, 32.638486)"><g><path d="M 3 -1.140625 C 3 -0.765625 2.863281 -0.46875 2.59375 -0.25 C 2.320312 -0.0390625 1.953125 0.0625 1.484375 0.0625 C 0.972656 0.0625 0.582031 -0.00390625 0.3125 -0.140625 L 0.3125 -0.625 C 0.488281 -0.539062 0.679688 -0.476562 0.890625 -0.4375 C 1.097656 -0.394531 1.300781 -0.375 1.5 -0.375 C 1.832031 -0.375 2.082031 -0.4375 2.25 -0.5625 C 2.414062 -0.6875 2.5 -0.863281 2.5 -1.09375 C 2.5 -1.238281 2.46875 -1.359375 2.40625 -1.453125 C 2.351562 -1.546875 2.253906 -1.632812 2.109375 -1.71875 C 1.972656 -1.800781 1.765625 -1.894531 1.484375 -2 C 1.078125 -2.132812 0.785156 -2.300781 0.609375 -2.5 C 0.441406 -2.695312 0.359375 -2.953125 0.359375 -3.265625 C 0.359375 -3.597656 0.484375 -3.859375 0.734375 -4.046875 C 0.984375 -4.242188 1.3125 -4.34375 1.71875 -4.34375 C 2.144531 -4.34375 2.535156 -4.265625 2.890625 -4.109375 L 2.75 -3.671875 C 2.394531 -3.828125 2.050781 -3.90625 1.71875 -3.90625 C 1.445312 -3.90625 1.238281 -3.847656 1.09375 -3.734375 C 0.945312 -3.617188 0.875 -3.460938 0.875 -3.265625 C 0.875 -3.109375 0.898438 -2.984375 0.953125 -2.890625 C 1.003906 -2.796875 1.09375 -2.707031 1.21875 -2.625 C 1.351562 -2.550781 1.554688 -2.46875 1.828125 -2.375 C 2.273438 -2.207031 2.582031 -2.03125 2.75 -1.84375 C 2.914062 -1.664062 3 -1.429688 3 -1.140625 Z M 3 -1.140625 "/></g></g></g><g fill="#141515" fill-opacity="1"><g transform="translate(103.535031, 32.638486)"><g><path d="M 3.84375 0 L 3.34375 0 L 3.34375 -2.015625 L 1.09375 -2.015625 L 1.09375 0 L 0.59375 0 L 0.59375 -4.28125 L 1.09375 -4.28125 L 1.09375 -2.46875 L 3.34375 -2.46875 L 3.34375 -4.28125 L 3.84375 -4.28125 Z M 3.84375 0 "/></g></g></g><g fill="#141515" fill-opacity="1"><g transform="translate(109.353803, 32.638486)"><g><path d="M 4.3125 -2.140625 C 4.3125 -1.460938 4.132812 -0.925781 3.78125 -0.53125 C 3.4375 -0.132812 2.957031 0.0625 2.34375 0.0625 C 1.707031 0.0625 1.21875 -0.128906 0.875 -0.515625 C 0.53125 -0.898438 0.359375 -1.445312 0.359375 -2.15625 C 0.359375 -2.851562 0.53125 -3.390625 0.875 -3.765625 C 1.21875 -4.148438 1.707031 -4.34375 2.34375 -4.34375 C 2.957031 -4.34375 3.4375 -4.144531 3.78125 -3.75 C 4.132812 -3.363281 4.3125 -2.828125 4.3125 -2.140625 Z M 0.890625 -2.140625 C 0.890625 -1.566406 1.015625 -1.128906 1.265625 -0.828125 C 1.515625 -0.523438 1.875 -0.375 2.34375 -0.375 C 2.8125 -0.375 3.164062 -0.523438 3.40625 -0.828125 C 3.65625 -1.128906 3.78125 -1.566406 3.78125 -2.140625 C 3.78125 -2.722656 3.660156 -3.160156 3.421875 -3.453125 C 3.179688 -3.753906 2.820312 -3.90625 2.34375 -3.90625 C 1.875 -3.90625 1.515625 -3.753906 1.265625 -3.453125 C 1.015625 -3.148438 0.890625 -2.710938 0.890625 -2.140625 Z M 0.890625 -2.140625 "/></g></g></g><g fill="#141515" fill-opacity="1"><g transform="translate(115.418669, 32.638486)"><g><path d="M 4.3125 -2.140625 C 4.3125 -1.460938 4.132812 -0.925781 3.78125 -0.53125 C 3.4375 -0.132812 2.957031 0.0625 2.34375 0.0625 C 1.707031 0.0625 1.21875 -0.128906 0.875 -0.515625 C 0.53125 -0.898438 0.359375 -1.445312 0.359375 -2.15625 C 0.359375 -2.851562 0.53125 -3.390625 0.875 -3.765625 C 1.21875 -4.148438 1.707031 -4.34375 2.34375 -4.34375 C 2.957031 -4.34375 3.4375 -4.144531 3.78125 -3.75 C 4.132812 -3.363281 4.3125 -2.828125 4.3125 -2.140625 Z M 0.890625 -2.140625 C 0.890625 -1.566406 1.015625 -1.128906 1.265625 -0.828125 C 1.515625 -0.523438 1.875 -0.375 2.34375 -0.375 C 2.8125 -0.375 3.164062 -0.523438 3.40625 -0.828125 C 3.65625 -1.128906 3.78125 -1.566406 3.78125 -2.140625 C 3.78125 -2.722656 3.660156 -3.160156 3.421875 -3.453125 C 3.179688 -3.753906 2.820312 -3.90625 2.34375 -3.90625 C 1.875 -3.90625 1.515625 -3.753906 1.265625 -3.453125 C 1.015625 -3.148438 0.890625 -2.710938 0.890625 -2.140625 Z M 0.890625 -2.140625 "/></g></g></g><g fill="#141515" fill-opacity="1"><g transform="translate(121.483536, 32.638486)"><g><path d="M 3.3125 -3.03125 C 3.3125 -2.601562 3.160156 -2.269531 2.859375 -2.03125 C 2.566406 -1.800781 2.144531 -1.6875 1.59375 -1.6875 L 1.09375 -1.6875 L 1.09375 0 L 0.59375 0 L 0.59375 -4.28125 L 1.703125 -4.28125 C 2.773438 -4.28125 3.3125 -3.863281 3.3125 -3.03125 Z M 1.09375 -2.109375 L 1.53125 -2.109375 C 1.976562 -2.109375 2.300781 -2.179688 2.5 -2.328125 C 2.695312 -2.472656 2.796875 -2.703125 2.796875 -3.015625 C 2.796875 -3.296875 2.703125 -3.503906 2.515625 -3.640625 C 2.328125 -3.785156 2.035156 -3.859375 1.640625 -3.859375 L 1.09375 -3.859375 Z M 1.09375 -2.109375 "/></g></g></g><g fill="#141515" fill-opacity="1"><g transform="translate(126.487852, 32.638486)"><g><path d="M 0.59375 0 L 0.59375 -4.28125 L 1.09375 -4.28125 L 1.09375 0 Z M 0.59375 0 "/></g></g></g><g fill="#141515" fill-opacity="1"><g transform="translate(129.552711, 32.638486)"><g><path d="M 3.9375 0 L 3.359375 0 L 1.03125 -3.59375 L 1 -3.59375 C 1.03125 -3.175781 1.046875 -2.789062 1.046875 -2.4375 L 1.046875 0 L 0.59375 0 L 0.59375 -4.28125 L 1.15625 -4.28125 L 3.484375 -0.703125 L 3.515625 -0.703125 C 3.503906 -0.753906 3.492188 -0.921875 3.484375 -1.203125 C 3.472656 -1.492188 3.46875 -1.703125 3.46875 -1.828125 L 3.46875 -4.28125 L 3.9375 -4.28125 Z M 3.9375 0 "/></g></g></g><g fill="#141515" fill-opacity="1"><g transform="translate(135.468163, 32.638486)"><g><path d="M 2.46875 -2.25 L 3.921875 -2.25 L 3.921875 -0.15625 C 3.703125 -0.0820312 3.472656 -0.03125 3.234375 0 C 3.003906 0.0390625 2.734375 0.0625 2.421875 0.0625 C 1.773438 0.0625 1.269531 -0.128906 0.90625 -0.515625 C 0.539062 -0.898438 0.359375 -1.441406 0.359375 -2.140625 C 0.359375 -2.585938 0.445312 -2.976562 0.625 -3.3125 C 0.8125 -3.644531 1.070312 -3.898438 1.40625 -4.078125 C 1.738281 -4.253906 2.132812 -4.34375 2.59375 -4.34375 C 3.039062 -4.34375 3.460938 -4.257812 3.859375 -4.09375 L 3.671875 -3.65625 C 3.285156 -3.820312 2.914062 -3.90625 2.5625 -3.90625 C 2.03125 -3.90625 1.617188 -3.75 1.328125 -3.4375 C 1.035156 -3.125 0.890625 -2.691406 0.890625 -2.140625 C 0.890625 -1.566406 1.03125 -1.128906 1.3125 -0.828125 C 1.59375 -0.523438 2.007812 -0.375 2.5625 -0.375 C 2.851562 -0.375 3.144531 -0.410156 3.4375 -0.484375 L 3.4375 -1.796875 L 2.46875 -1.796875 Z M 2.46875 -2.25 "/></g></g></g><g fill="#141515" fill-opacity="1"><g transform="translate(141.228341, 32.638486)"><g/></g></g><g fill="#141515" fill-opacity="1"><g transform="translate(144.178941, 32.638486)"><g><path d="M 3 -1.140625 C 3 -0.765625 2.863281 -0.46875 2.59375 -0.25 C 2.320312 -0.0390625 1.953125 0.0625 1.484375 0.0625 C 0.972656 0.0625 0.582031 -0.00390625 0.3125 -0.140625 L 0.3125 -0.625 C 0.488281 -0.539062 0.679688 -0.476562 0.890625 -0.4375 C 1.097656 -0.394531 1.300781 -0.375 1.5 -0.375 C 1.832031 -0.375 2.082031 -0.4375 2.25 -0.5625 C 2.414062 -0.6875 2.5 -0.863281 2.5 -1.09375 C 2.5 -1.238281 2.46875 -1.359375 2.40625 -1.453125 C 2.351562 -1.546875 2.253906 -1.632812 2.109375 -1.71875 C 1.972656 -1.800781 1.765625 -1.894531 1.484375 -2 C 1.078125 -2.132812 0.785156 -2.300781 0.609375 -2.5 C 0.441406 -2.695312 0.359375 -2.953125 0.359375 -3.265625 C 0.359375 -3.597656 0.484375 -3.859375 0.734375 -4.046875 C 0.984375 -4.242188 1.3125 -4.34375 1.71875 -4.34375 C 2.144531 -4.34375 2.535156 -4.265625 2.890625 -4.109375 L 2.75 -3.671875 C 2.394531 -3.828125 2.050781 -3.90625 1.71875 -3.90625 C 1.445312 -3.90625 1.238281 -3.847656 1.09375 -3.734375 C 0.945312 -3.617188 0.875 -3.460938 0.875 -3.265625 C 0.875 -3.109375 0.898438 -2.984375 0.953125 -2.890625 C 1.003906 -2.796875 1.09375 -2.707031 1.21875 -2.625 C 1.351562 -2.550781 1.554688 -2.46875 1.828125 -2.375 C 2.273438 -2.207031 2.582031 -2.03125 2.75 -1.84375 C 2.914062 -1.664062 3 -1.429688 3 -1.140625 Z M 3 -1.140625 "/></g></g></g><g fill="#141515" fill-opacity="1"><g transform="translate(148.863921, 32.638486)"><g><path d="M 1.90625 0 L 1.40625 0 L 1.40625 -3.84375 L 0.046875 -3.84375 L 0.046875 -4.28125 L 3.265625 -4.28125 L 3.265625 -3.84375 L 1.90625 -3.84375 Z M 1.90625 0 "/></g></g></g><g fill="#141515" fill-opacity="1"><g transform="translate(153.575268, 32.638486)"><g><path d="M 4.3125 -2.140625 C 4.3125 -1.460938 4.132812 -0.925781 3.78125 -0.53125 C 3.4375 -0.132812 2.957031 0.0625 2.34375 0.0625 C 1.707031 0.0625 1.21875 -0.128906 0.875 -0.515625 C 0.53125 -0.898438 0.359375 -1.445312 0.359375 -2.15625 C 0.359375 -2.851562 0.53125 -3.390625 0.875 -3.765625 C 1.21875 -4.148438 1.707031 -4.34375 2.34375 -4.34375 C 2.957031 -4.34375 3.4375 -4.144531 3.78125 -3.75 C 4.132812 -3.363281 4.3125 -2.828125 4.3125 -2.140625 Z M 0.890625 -2.140625 C 0.890625 -1.566406 1.015625 -1.128906 1.265625 -0.828125 C 1.515625 -0.523438 1.875 -0.375 2.34375 -0.375 C 2.8125 -0.375 3.164062 -0.523438 3.40625 -0.828125 C 3.65625 -1.128906 3.78125 -1.566406 3.78125 -2.140625 C 3.78125 -2.722656 3.660156 -3.160156 3.421875 -3.453125 C 3.179688 -3.753906 2.820312 -3.90625 2.34375 -3.90625 C 1.875 -3.90625 1.515625 -3.753906 1.265625 -3.453125 C 1.015625 -3.148438 0.890625 -2.710938 0.890625 -2.140625 Z M 0.890625 -2.140625 "/></g></g></g><g fill="#141515" fill-opacity="1"><g transform="translate(159.640134, 32.638486)"><g><path d="M 1.09375 -1.78125 L 1.09375 0 L 0.59375 0 L 0.59375 -4.28125 L 1.765625 -4.28125 C 2.285156 -4.28125 2.671875 -4.179688 2.921875 -3.984375 C 3.179688 -3.785156 3.3125 -3.484375 3.3125 -3.078125 C 3.3125 -2.503906 3.019531 -2.117188 2.4375 -1.921875 L 3.609375 0 L 3.015625 0 L 1.984375 -1.78125 Z M 1.09375 -2.203125 L 1.765625 -2.203125 C 2.117188 -2.203125 2.378906 -2.269531 2.546875 -2.40625 C 2.710938 -2.550781 2.796875 -2.765625 2.796875 -3.046875 C 2.796875 -3.328125 2.707031 -3.53125 2.53125 -3.65625 C 2.363281 -3.78125 2.097656 -3.84375 1.734375 -3.84375 L 1.09375 -3.84375 Z M 1.09375 -2.203125 "/></g></g></g><g fill="#141515" fill-opacity="1"><g transform="translate(164.741131, 32.638486)"><g><path d="M 2.984375 0 L 0.59375 0 L 0.59375 -4.28125 L 2.984375 -4.28125 L 2.984375 -3.84375 L 1.09375 -3.84375 L 1.09375 -2.46875 L 2.859375 -2.46875 L 2.859375 -2.015625 L 1.09375 -2.015625 L 1.09375 -0.453125 L 2.984375 -0.453125 Z M 2.984375 0 "/></g></g></g></svg>